<svg xmlns="http://www.w3.org/2000/svg" width="459" height="512" viewBox="0 0 459 512">
  <path id="formar" d="M81,370H223v40H81Zm0-39H223V291H81Zm0-79H326V212H81ZM459,512H419a73,73,0,0,0-146,0H233a113.071,113.071,0,0,1,57.344-98.312,74,74,0,1,1,111.312,0A113.071,113.071,0,0,1,459,512ZM346,399a34,34,0,1,0-34-34A34.041,34.041,0,0,0,346,399ZM60,472H198.316A152.563,152.563,0,0,0,193,512H60A60.066,60.066,0,0,1,0,452V60A60.066,60.066,0,0,1,60,0H263.758L405.891,142.855V268.066A112.711,112.711,0,0,0,366,252.742V171.109H294.891a60.066,60.066,0,0,1-60-60V40H60A20.024,20.024,0,0,0,40,60V452a20.024,20.024,0,0,0,20,20ZM294.891,131.109h42.973L274.891,67.875v43.234A20.018,20.018,0,0,0,294.891,131.109Zm0,0" transform="translate(0)"/>
</svg>
