<svg xmlns="http://www.w3.org/2000/svg" width="512" height="512" viewBox="0 0 512 512">
  <path id="instagram" d="M363.272,512H148.728C66.719,512,0,445.281,0,363.272V148.728C0,66.719,66.719,0,148.728,0H363.273C445.281,0,512,66.719,512,148.728V363.273C512,445.281,445.281,512,363.272,512ZM148.728,40A108.851,108.851,0,0,0,40,148.728V363.273A108.851,108.851,0,0,0,148.728,472H363.273A108.851,108.851,0,0,0,472,363.272V148.728A108.851,108.851,0,0,0,363.272,40ZM256,394c-76.094,0-138-61.906-138-138s61.906-138,138-138,138,61.906,138,138S332.094,394,256,394Zm0-236a98,98,0,1,0,98,98A98.111,98.111,0,0,0,256,158Zm120-42a20,20,0,1,0,20-20A20,20,0,0,0,376,116Z"/>
</svg>
