<svg xmlns="http://www.w3.org/2000/svg" width="512" height="512" viewBox="0 0 512 512">
  <path id="linkedin" d="M160.008,423h-70V197h70Zm6.984-298a41,41,0,1,0-40.977,41,41,41,0,0,0,40.977-41ZM422,298.664C422,238,409.184,193,338.313,193c-34.055,0-56.914,17.031-66.246,34.742H272V197H204V423h68V310.789c0-29.387,7.48-57.855,43.906-57.855,35.93,0,37.094,33.605,37.094,59.723V423h69ZM512,452V60A60.066,60.066,0,0,0,452,0H60A60.066,60.066,0,0,0,0,60V452a60.066,60.066,0,0,0,60,60H452A60.066,60.066,0,0,0,512,452ZM452,40a20.024,20.024,0,0,1,20,20V452a20.024,20.024,0,0,1-20,20H60a20.024,20.024,0,0,1-20-20V60A20.024,20.024,0,0,1,60,40Zm0,0" transform="translate(0)"/>
</svg>
