<svg xmlns="http://www.w3.org/2000/svg" width="90.52" height="15.415" viewBox="0 0 90.52 15.415">
  <g id="Dyngo_Logo" data-name="Dyngo Logo" transform="translate(0 0)">
    <g id="Grupo_8" data-name="Grupo 8" transform="translate(0 0)">
      <g id="Grupo_7" data-name="Grupo 7" transform="translate(28.527)">
        <g id="Grupo_6" data-name="Grupo 6">
          <path id="Trazado_11" data-name="Trazado 11" d="M544.9,214.755l2.435-5.212a1.365,1.365,0,0,1,.1-.176.3.3,0,0,1,.081-.081.2.2,0,0,1,.086-.03.512.512,0,0,0,.106-.025h3.882a.157.157,0,0,1,.116.045.146.146,0,0,1,.045.106.389.389,0,0,1-.141.252l-4.779,8.459v5.636a.414.414,0,0,1-.463.474H543.35a.392.392,0,0,1-.312-.126.509.509,0,0,1-.11-.348v-5.656l-4.769-8.438a.37.37,0,0,1-.131-.252.154.154,0,0,1,.04-.106.14.14,0,0,1,.111-.045h3.882a.753.753,0,0,0,.111.025.2.2,0,0,1,.081.03.306.306,0,0,1,.081.081q.04.055.111.176Z" transform="translate(-538.028 -209.008)" fill="#e04e39"/>
          <path id="Trazado_12" data-name="Trazado 12" d="M756.592,209.674a.467.467,0,0,1,.111-.313.412.412,0,0,1,.332-.131h3.3a.693.693,0,0,1,.292.071.64.64,0,0,1,.262.242q1.281,2.067,2.541,4.073t2.551,4.073v-8.076a.494.494,0,0,1,.161-.282.427.427,0,0,1,.282-.1H769.3a.537.537,0,0,1,.353.116.4.4,0,0,1,.141.328v14.135a.356.356,0,0,1-.121.3.522.522,0,0,1-.333.1h-3.216a.337.337,0,0,1-.232-.091,1.592,1.592,0,0,1-.212-.242l-2.652-4.386q-1.311-2.167-2.662-4.386v8.66a.386.386,0,0,1-.464.444h-2.863a.417.417,0,0,1-.338-.126.462.462,0,0,1-.106-.308Z" transform="translate(-740.955 -209.008)" fill="#e04e39"/>
          <path id="Trazado_13" data-name="Trazado 13" d="M989.508,210.575a4.37,4.37,0,0,0-1.1-.565,3.807,3.807,0,0,0-1.25-.2,3.638,3.638,0,0,0-2.727,1.18,4,4,0,0,0-.781,1.275,4.425,4.425,0,0,0,0,3.11,3.949,3.949,0,0,0,.781,1.265,3.641,3.641,0,0,0,1.195.852,3.7,3.7,0,0,0,1.533.312,4.869,4.869,0,0,0,.7-.05q.348-.05.741-.131v-2.641a.463.463,0,0,1,.111-.318.419.419,0,0,1,.333-.126h2.742a.57.57,0,0,1,.323.121.377.377,0,0,1,.171.323v4.88a.506.506,0,0,1-.292.444,5.526,5.526,0,0,1-1.049.555,8.587,8.587,0,0,1-1.2.383,10.743,10.743,0,0,1-1.265.227,10.622,10.622,0,0,1-1.245.076,7.629,7.629,0,0,1-3.892-1.049,7.81,7.81,0,0,1-2.762-2.757,7.52,7.52,0,0,1-.776-1.835,7.733,7.733,0,0,1,.776-5.948,7.805,7.805,0,0,1,1.2-1.568,7.513,7.513,0,0,1,1.558-1.2,7.9,7.9,0,0,1,1.84-.776,7.811,7.811,0,0,1,4.335.06,7.842,7.842,0,0,1,2.021.973.689.689,0,0,1,.262.267.36.36,0,0,1-.04.378l-1.633,2.359a.713.713,0,0,1-.262.217A.4.4,0,0,1,989.508,210.575Z" transform="translate(-947.941 -206.129)" fill="#e04e39"/>
          <path id="Trazado_14" data-name="Trazado 14" d="M1188.935,213.852a7.66,7.66,0,0,1,1.049-3.9,7.8,7.8,0,0,1,1.205-1.568,7.514,7.514,0,0,1,1.559-1.2,7.908,7.908,0,0,1,1.841-.776,7.717,7.717,0,0,1,4.1,0,7.89,7.89,0,0,1,1.846.776,7.658,7.658,0,0,1,2.769,2.772,8.018,8.018,0,0,1,.777,1.845,7.727,7.727,0,0,1,0,4.1,7.821,7.821,0,0,1-.777,1.835,7.587,7.587,0,0,1-1.206,1.553,7.881,7.881,0,0,1-1.564,1.2,7.719,7.719,0,0,1-7.788,0,7.811,7.811,0,0,1-2.764-2.757,7.516,7.516,0,0,1-.777-1.835A7.641,7.641,0,0,1,1188.935,213.852Zm3.9-.01a4.275,4.275,0,0,0,.282,1.563,3.856,3.856,0,0,0,.79,1.265,3.685,3.685,0,0,0,1.2.847,3.975,3.975,0,0,0,3.066,0,3.672,3.672,0,0,0,1.208-.847,3.866,3.866,0,0,0,.79-1.265,4.457,4.457,0,0,0,0-3.12,3.914,3.914,0,0,0-.79-1.275,3.758,3.758,0,0,0-5.478,0,3.9,3.9,0,0,0-.79,1.275A4.289,4.289,0,0,0,1192.836,213.842Z" transform="translate(-1142.368 -206.129)" fill="#e04e39"/>
        </g>
      </g>
      <path id="Trazado_15" data-name="Trazado 15" d="M167.375,216.466a7.494,7.494,0,0,0-7.512-7.477c-1.725,0-3.871,0-4.877,0H139.524a.264.264,0,0,0-.246.258,4.691,4.691,0,0,0,1.2,2.776,4.8,4.8,0,0,0,3.433,1.535h3.448a.417.417,0,0,1,0,.834h-2.149c-.314,0-.384-.023-.493.106-.142.168.135,1.173.711,1.971a4.766,4.766,0,0,0,4.475,2.083c.623,0,1.9-.006,2.522-.006a.406.406,0,0,1,.417.417.418.418,0,0,1-.417.417H150.3a.259.259,0,0,0-.258.258,4.766,4.766,0,0,0,1.207,2.82,4.6,4.6,0,0,0,3.584,1.529c2.277,0,3.869,0,5.057,0A7.525,7.525,0,0,0,167.375,216.466Z" transform="translate(-139.278 -208.783)" fill="#e04e39"/>
    </g>
    <g id="Grupo_9" data-name="Grupo 9" transform="translate(14.949 2.384)">
      <path id="Trazado_16" data-name="Trazado 16" d="M357.454,244.234c0-1.673-2.191-4.784-2.191-4.784l-.46,2.106-.9-2.106-.963,2.866a4.689,4.689,0,0,0-1.706,2.114l-3,.913a2.2,2.2,0,0,0,1.347,1.7,6.874,6.874,0,0,0,2.56.425v1.186h1.106a3.915,3.915,0,0,0,4.245-3.9C357.489,243.738,357.454,244.4,357.454,244.234Zm-4.51.236a.051.051,0,0,1-.049.04c-.122,0-.472,0-.595,0a.156.156,0,0,1-.155-.155.151.151,0,0,1,.163-.154,3.42,3.42,0,0,1,.608.216A.05.05,0,0,1,352.945,244.469Z" transform="translate(-348.231 -239.45)" fill="#f2c75c"/>
    </g>
  </g>
</svg>
