<svg xmlns="http://www.w3.org/2000/svg" xmlns:xlink="http://www.w3.org/1999/xlink" viewBox="0 0 531.17 288"><defs><style>.cls-1{isolation:isolate;}.cls-2{fill:url(#radial-gradient);}.cls-3,.cls-4{mix-blend-mode:color-burn;}.cls-3{fill:url(#radial-gradient-2);}.cls-4{fill:url(#radial-gradient-3);}.cls-5{fill:url(#linear-gradient);}.cls-6{fill:url(#linear-gradient-2);}.cls-7{fill:url(#linear-gradient-3);}.cls-8{fill:url(#linear-gradient-4);}.cls-9{fill:url(#linear-gradient-5);}.cls-10{fill:url(#linear-gradient-6);}.cls-11{fill:url(#linear-gradient-7);}.cls-12{fill:url(#linear-gradient-8);}.cls-13{fill:url(#linear-gradient-9);}.cls-14{mix-blend-mode:screen;}.cls-15{fill:url(#linear-gradient-10);}.cls-16{fill:url(#linear-gradient-11);}.cls-17{fill:url(#linear-gradient-12);}.cls-18{fill:url(#linear-gradient-13);}.cls-19{fill:url(#linear-gradient-14);}.cls-20{fill:url(#linear-gradient-15);}.cls-21{fill:url(#linear-gradient-16);}.cls-22{fill:url(#linear-gradient-17);}.cls-23{fill:url(#linear-gradient-18);}.cls-24{fill:url(#linear-gradient-19);}.cls-25{fill:url(#linear-gradient-20);}.cls-26{fill:url(#linear-gradient-21);}.cls-27{fill:url(#linear-gradient-22);}.cls-28{fill:url(#linear-gradient-23);}.cls-29{fill:url(#linear-gradient-24);}.cls-30{fill:url(#linear-gradient-25);}.cls-31{fill:url(#linear-gradient-26);}.cls-32{fill:url(#linear-gradient-27);}.cls-33{fill:url(#linear-gradient-28);}.cls-34{fill:url(#linear-gradient-29);}.cls-35{fill:url(#linear-gradient-30);}.cls-36{fill:url(#linear-gradient-31);}.cls-37{fill:url(#linear-gradient-32);}.cls-38{fill:url(#linear-gradient-33);}.cls-39{fill:url(#linear-gradient-34);}.cls-40{fill:#fff;}</style><radialGradient id="radial-gradient" cx="396.06" cy="51.65" r="198.21" gradientUnits="userSpaceOnUse"><stop offset="0" stop-color="#20222a"/><stop offset="0.49" stop-color="#1a1b24"/><stop offset="1" stop-color="#0d0e19"/></radialGradient><radialGradient id="radial-gradient-2" cx="169.67" cy="135.82" r="77.17" gradientTransform="translate(242.78) scale(0.85 1)" gradientUnits="userSpaceOnUse"><stop offset="0" stop-color="#636982"/><stop offset="0.05" stop-color="#767c91"/><stop offset="0.18" stop-color="#a0a3b3"/><stop offset="0.31" stop-color="#c2c5ce"/><stop offset="0.44" stop-color="#dddee4"/><stop offset="0.58" stop-color="#f0f1f3"/><stop offset="0.72" stop-color="#fbfbfc"/><stop offset="0.87" stop-color="#fff"/></radialGradient><radialGradient id="radial-gradient-3" cx="-43.78" cy="2259.56" r="87.7" gradientTransform="translate(195.38 -651.85) scale(1.17 0.38)" gradientUnits="userSpaceOnUse"><stop offset="0" stop-color="#e0e0e0"/><stop offset="0.25" stop-color="#f0f0f0"/><stop offset="0.55" stop-color="#fbfbfb"/><stop offset="0.87" stop-color="#fff"/></radialGradient><linearGradient id="linear-gradient" x1="83.14" y1="199.36" x2="182.42" y2="232.55" gradientUnits="userSpaceOnUse"><stop offset="0" stop-color="#b27f2a"/><stop offset="0.06" stop-color="#b7862e"/><stop offset="0.14" stop-color="#c49939"/><stop offset="0.24" stop-color="#dab84c"/><stop offset="0.33" stop-color="#f4dd62"/><stop offset="0.52" stop-color="#f4e38b"/><stop offset="0.66" stop-color="#f4dd62"/><stop offset="1" stop-color="#b27f2a"/></linearGradient><linearGradient id="linear-gradient-2" x1="84.34" y1="195.79" x2="183.62" y2="228.99" xlink:href="#linear-gradient"/><linearGradient id="linear-gradient-3" x1="85.47" y1="192.38" x2="184.77" y2="225.59" xlink:href="#linear-gradient"/><linearGradient id="linear-gradient-4" x1="87.18" y1="187.29" x2="186.46" y2="220.49" xlink:href="#linear-gradient"/><linearGradient id="linear-gradient-5" x1="88.36" y1="183.74" x2="187.65" y2="216.94" xlink:href="#linear-gradient"/><linearGradient id="linear-gradient-6" x1="90.36" y1="177.75" x2="189.66" y2="210.95" xlink:href="#linear-gradient"/><linearGradient id="linear-gradient-7" x1="91.51" y1="174.34" x2="190.79" y2="207.54" xlink:href="#linear-gradient"/><linearGradient id="linear-gradient-8" x1="93.32" y1="168.95" x2="192.6" y2="202.14" xlink:href="#linear-gradient"/><linearGradient id="linear-gradient-9" x1="94.7" y1="164.77" x2="193.99" y2="197.97" xlink:href="#linear-gradient"/><linearGradient id="linear-gradient-10" x1="208.68" y1="212.74" x2="82.06" y2="200.11" xlink:href="#linear-gradient"/><linearGradient id="linear-gradient-11" x1="208.79" y1="211.56" x2="82.17" y2="198.94" xlink:href="#linear-gradient"/><linearGradient id="linear-gradient-12" x1="208.91" y1="210.42" x2="82.29" y2="197.79" xlink:href="#linear-gradient"/><linearGradient id="linear-gradient-13" x1="209.08" y1="208.75" x2="82.45" y2="196.12" xlink:href="#linear-gradient"/><linearGradient id="linear-gradient-14" x1="209.19" y1="207.63" x2="82.57" y2="195.01" xlink:href="#linear-gradient"/><linearGradient id="linear-gradient-15" x1="209.4" y1="205.61" x2="82.76" y2="192.99" xlink:href="#linear-gradient"/><linearGradient id="linear-gradient-16" x1="209.5" y1="204.49" x2="82.88" y2="191.87" xlink:href="#linear-gradient"/><linearGradient id="linear-gradient-17" x1="209.68" y1="202.72" x2="83.06" y2="190.1" xlink:href="#linear-gradient"/><linearGradient id="linear-gradient-18" x1="209.82" y1="201.35" x2="83.19" y2="188.73" xlink:href="#linear-gradient"/><linearGradient id="linear-gradient-19" x1="80.53" y1="207.47" x2="179.75" y2="240.64" xlink:href="#linear-gradient"/><linearGradient id="linear-gradient-20" x1="80.93" y1="206.25" x2="180.2" y2="239.44" xlink:href="#linear-gradient"/><linearGradient id="linear-gradient-21" x1="81.69" y1="204" x2="180.94" y2="237.18" xlink:href="#linear-gradient"/><linearGradient id="linear-gradient-22" x1="82.12" y1="202.68" x2="181.4" y2="235.87" xlink:href="#linear-gradient"/><linearGradient id="linear-gradient-23" x1="82.68" y1="201.03" x2="181.95" y2="234.22" xlink:href="#linear-gradient"/><linearGradient id="linear-gradient-24" x1="83.19" y1="199.45" x2="182.49" y2="232.65" xlink:href="#linear-gradient"/><linearGradient id="linear-gradient-25" x1="83.8" y1="197.6" x2="183.12" y2="230.8" xlink:href="#linear-gradient"/><linearGradient id="linear-gradient-26" x1="84.73" y1="194.81" x2="184.05" y2="228.01" xlink:href="#linear-gradient"/><linearGradient id="linear-gradient-27" x1="85.3" y1="193.18" x2="184.58" y2="226.37" xlink:href="#linear-gradient"/><linearGradient id="linear-gradient-28" x1="85.79" y1="191.64" x2="185.1" y2="224.85" xlink:href="#linear-gradient"/><linearGradient id="linear-gradient-29" x1="86.53" y1="189.39" x2="185.85" y2="222.6" xlink:href="#linear-gradient"/><linearGradient id="linear-gradient-30" x1="87.14" y1="187.78" x2="186.38" y2="220.96" xlink:href="#linear-gradient"/><linearGradient id="linear-gradient-31" x1="88.06" y1="184.86" x2="187.36" y2="218.07" xlink:href="#linear-gradient"/><linearGradient id="linear-gradient-32" x1="88.66" y1="183.01" x2="187.98" y2="216.22" xlink:href="#linear-gradient"/><linearGradient id="linear-gradient-33" x1="89.22" y1="181.41" x2="188.51" y2="214.62" xlink:href="#linear-gradient"/><linearGradient id="linear-gradient-34" x1="89.89" y1="179.59" x2="189.13" y2="212.77" xlink:href="#linear-gradient"/></defs><title>logo</title><g class="cls-1"><g id="Layer_1" data-name="Layer 1"><rect class="cls-2" x="243.17" width="288" height="288"/><ellipse class="cls-3" cx="387.17" cy="135.82" rx="65.67" ry="77.17"/><path class="cls-4" d="M246.93,211.07c0,18.5-46.08,33.5-102.93,33.5s-102.93-15-102.93-33.5S87.15,177.58,144,177.58,246.93,192.58,246.93,211.07Z" transform="translate(243.17)"/><path class="cls-5" d="M83.13,207V194.1h6q3.67,0,3.67,3a3.24,3.24,0,0,1-2.39,3.14A2.76,2.76,0,0,1,93,203.17c0,2.54-1.35,3.82-4,3.82Zm5.75-2.08a1.42,1.42,0,0,0,1.59-1.62c0-1.34-.8-2-2.38-2h-.72v-1.54c2-.33,3-1.16,3-2.49,0-.72-.45-1.08-1.34-1.08H85.52v8.74Z" transform="translate(243.17)"/><path class="cls-6" d="M95,207V194.1h5.86q3.94,0,4,3.45c0,1.56-1,2.84-3.07,3.87l4.08,5.57h-3l-3.92-5.62v-1.09q3.42-.59,3.42-2.66c0-1-.53-1.42-1.6-1.42H97.47V207Z" transform="translate(243.17)"/><path class="cls-7" d="M108.3,207h-2.45l5.47-12.89h2.57L119.48,207h-2.57l-1.47-3.52h-4.28l.82-2.07h2.59l-2-4.84Z" transform="translate(243.17)"/><path class="cls-8" d="M121.05,207V194.1h2.39l6.81,9.39V194.1h2.29V207h-2.39l-6.8-9.59V207Z" transform="translate(243.17)"/><path class="cls-9" d="M135.25,207V194.1h5.05q6.39,0,6.39,6.09,0,6.8-6.39,6.8Zm5.05-2.08q4,0,4-4.72,0-4-4-4h-2.66v8.74Z" transform="translate(243.17)"/><path class="cls-10" d="M152.78,207V194.1h2.38l6.81,9.39V194.1h2.3V207h-2.39l-6.81-9.59V207Z" transform="translate(243.17)"/><path class="cls-11" d="M168.3,207h-2.46l5.47-12.89h2.57L179.47,207H176.9l-1.47-3.52h-4.28l.82-2.07h2.6l-2-4.84Z" transform="translate(243.17)"/><path class="cls-12" d="M181.05,207V194.1h2.48l4.37,9.78,4.28-9.78h2.39V207h-2.21v-9l-3.5,9h-2l-3.56-9v9Z" transform="translate(243.17)"/><path class="cls-13" d="M206.09,194.1v2.05h-6.45v3.25h6.15v2.13h-6.18v3.38h6.61V207h-8.95V194.1Z" transform="translate(243.17)"/><g class="cls-14"><path class="cls-15" d="M89.17,194.35c2.3,0,3.42.9,3.42,2.75A3,3,0,0,1,90.35,200l-.8.32.85.16a2.51,2.51,0,0,1,2.36,2.68c0,2.4-1.24,3.57-3.78,3.57h-5.6V194.35h5.79m-3.9,10.81h3.61a1.66,1.66,0,0,0,1.84-1.87c0-1-.46-2.26-2.63-2.26h-.47V200c2-.38,3-1.28,3-2.7,0-.49-.21-1.33-1.59-1.33H85.27v9.24m3.9-11.06h-6V207H89c2.68,0,4-1.28,4-3.82a2.76,2.76,0,0,0-2.56-2.93,3.24,3.24,0,0,0,2.39-3.14q0-3-3.67-3Zm-3.65,10.81v-8.74H89c.89,0,1.34.36,1.34,1.08,0,1.33-1,2.16-3,2.49v1.54h.72c1.58,0,2.38.67,2.38,2a1.42,1.42,0,0,1-1.59,1.62Z" transform="translate(243.17)"/><path class="cls-16" d="M100.89,194.35c2.49,0,3.7,1.05,3.7,3.2,0,1.45-1,2.67-2.94,3.64l-.26.14.17.23,3.8,5.18H103l-3.8-5.45v-.8c2.27-.43,3.42-1.4,3.42-2.87,0-.76-.32-1.67-1.85-1.67H97.22v10.77H95.28V194.35h5.61m0-.25H95V207h2.44V196.2h3.27c1.07,0,1.6.47,1.6,1.42q0,2.07-3.42,2.66v1.09l3.92,5.62h3l-4.08-5.57c2-1,3.07-2.31,3.07-3.87q0-3.45-4-3.45Z" transform="translate(243.17)"/><path class="cls-17" d="M113.73,194.35l5.36,12.39h-2l-1.4-3.36-.07-.16h-4.07l.62-1.57H115l-.15-.35-2-4.84-.24-.56-.23.56-4.18,10.28h-1.9l5.25-12.39h2.25m.16-.25h-2.57L105.85,207h2.45l4.25-10.43,2,4.84H112l-.82,2.07h4.28l1.47,3.52h2.57l-5.59-12.89Z" transform="translate(243.17)"/><path class="cls-18" d="M132.29,194.35v12.39h-2l-6.73-9.49-.46-.64v10.13h-1.8V194.35h2l6.73,9.28.46.63v-9.91h1.79m.25-.25h-2.29v9.39l-6.81-9.39h-2.39V207h2.3V197.4l6.8,9.59h2.39V194.1Z" transform="translate(243.17)"/><path class="cls-19" d="M140.3,194.35c4.13,0,6.14,1.91,6.14,5.84,0,4.4-2,6.55-6.14,6.55h-4.8V194.35h4.8m-2.91,10.81h2.91c2.82,0,4.26-1.67,4.26-5,0-2.83-1.44-4.27-4.26-4.27h-2.91v9.24m2.91-11.06h-5.05V207h5.05q6.39,0,6.39-6.8,0-6.09-6.39-6.09Zm-2.66,10.81v-8.74h2.66q4,0,4,4,0,4.73-4,4.72Z" transform="translate(243.17)"/><path class="cls-20" d="M164,194.35v12.39h-2l-6.73-9.49-.46-.64v10.13H153V194.35h2l6.73,9.28.45.63v-9.91H164m.25-.25H162v9.39l-6.81-9.39h-2.38V207h2.29V197.4l6.81,9.59h2.39V194.1Z" transform="translate(243.17)"/><path class="cls-21" d="M173.72,194.35l5.37,12.39h-2l-1.41-3.36-.06-.16h-4.08l.62-1.57h2.8l-.14-.35-2-4.84-.23-.56-.23.56-4.18,10.28h-1.91l5.26-12.39h2.24m.16-.25h-2.57L165.84,207h2.46l4.24-10.43,2,4.84H172l-.82,2.07h4.28L176.9,207h2.57l-5.59-12.89Z" transform="translate(243.17)"/><path class="cls-22" d="M194.32,194.35v12.39h-1.71V196.68l-.48,1.24-3.44,8.82H187l-3.5-8.82L183,196.7v10H181.3V194.35h2.07l4.3,9.63.23.51.23-.51,4.21-9.63h2m.25-.25h-2.39l-4.28,9.78-4.37-9.78h-2.48V207h2.21v-9l3.56,9h2l3.5-9v9h2.21V194.1Z" transform="translate(243.17)"/><path class="cls-23" d="M205.84,194.35v1.55h-6.45v3.75h6.15v1.63h-6.18v3.88H206v1.58h-8.45V194.35h8.32m.25-.25h-8.82V207h8.95v-2.08h-6.61v-3.38h6.18V199.4h-6.15v-3.25h6.45V194.1Z" transform="translate(243.17)"/></g><path class="cls-24" d="M99.06,211.41v.41H97.82v3.51h-.51v-3.51H96.08v-.41Z" transform="translate(243.17)"/><path class="cls-25" d="M101.63,215.33h-.53l1.67-3.92h.56l1.67,3.92h-.56l-.51-1.23h-1.29l.14-.41h1l-.73-1.78Z" transform="translate(243.17)"/><path class="cls-26" d="M110.76,215.18a2.9,2.9,0,0,1-1,.18c-1.42,0-2.13-.68-2.13-2.05s.69-1.93,2.06-1.93a3.57,3.57,0,0,1,1.1.16V212a3.14,3.14,0,0,0-1.05-.19c-1.07,0-1.6.51-1.6,1.52s.52,1.64,1.58,1.64a2.38,2.38,0,0,0,.56-.07v-1.33h.51Z" transform="translate(243.17)"/><path class="cls-27" d="M114.35,211.41v3.51h2.06v.41h-2.57v-3.92Z" transform="translate(243.17)"/><path class="cls-28" d="M119.85,211.41v3.92h-.51v-3.92Z" transform="translate(243.17)"/><path class="cls-29" d="M123.12,215.33v-3.92h.51l2.4,3.16v-3.16h.48v3.92H126l-2.4-3.19v3.19Z" transform="translate(243.17)"/><path class="cls-30" d="M132.26,211.41v.41H130.2v1.32h2v.41h-2v1.37h2.1v.41h-2.61v-3.92Z" transform="translate(243.17)"/><path class="cls-31" d="M138.89,215.2v-.47a3.88,3.88,0,0,0,1.34.22c.67,0,1-.25,1-.74s-.25-.63-.75-.63H140c-.83,0-1.24-.36-1.24-1.08s.53-1.12,1.58-1.12a4.72,4.72,0,0,1,1.28.16V212a3.55,3.55,0,0,0-1.28-.22c-.71,0-1.07.24-1.07.71s.24.64.73.64h.5c.84,0,1.26.35,1.26,1.07s-.51,1.15-1.52,1.15A5.18,5.18,0,0,1,138.89,215.2Z" transform="translate(243.17)"/><path class="cls-32" d="M144.74,215.33v-3.92h1.59q1.2,0,1.2,1.05c0,.76-.54,1.23-1.64,1.4l-.1-.43c.8-.12,1.2-.44,1.2-1s-.23-.65-.71-.65h-1v3.5Z" transform="translate(243.17)"/><path class="cls-33" d="M150.17,215.33h-.52l1.66-3.92h.57l1.67,3.92H153l-.51-1.23h-1.3l.14-.41h1l-.73-1.78Z" transform="translate(243.17)"/><path class="cls-34" d="M159.31,215.2a3.57,3.57,0,0,1-1.1.16,1.81,1.81,0,0,1-2.06-2.05c0-1.29.68-1.93,2.06-1.93a3.57,3.57,0,0,1,1.1.16V212a3.14,3.14,0,0,0-1.05-.19c-1.07,0-1.61.51-1.61,1.52a1.44,1.44,0,0,0,1.61,1.64,3.14,3.14,0,0,0,1.05-.19Z" transform="translate(243.17)"/><path class="cls-35" d="M165,211.41v.41H162.9v1.32h2v.41h-2v1.37H165v.41h-2.61v-3.92Z" transform="translate(243.17)"/><path class="cls-36" d="M171.64,215.33v-3.92h.51v1.73h2.32v-1.73H175v3.92h-.51v-1.78h-2.32v1.78Z" transform="translate(243.17)"/><path class="cls-37" d="M180.73,211.41v.41h-2.06v1.32h2v.41h-2v1.37h2.1v.41h-2.61v-3.92Z" transform="translate(243.17)"/><path class="cls-38" d="M183.79,215.33v-3.92h1.68c.75,0,1.12.31,1.12.94s-.37.89-1.1,1.13l1.35,1.85h-.67l-1.25-1.76v-.33c.75-.12,1.13-.41,1.13-.87s-.21-.54-.63-.54H184.3v3.5Z" transform="translate(243.17)"/><path class="cls-39" d="M192.19,211.41v.41h-2.05v1.32h2v.41h-2v1.37h2.09v.41h-2.6v-3.92Z" transform="translate(243.17)"/><path class="cls-40" d="M-243.17,85.67v75h27.06v-32l3.34,5.17h0l16.35,25.29.92,1.43h0l.05.07h27.28v-75Zm68.41,68.4H-190V115.89h-6.59v30.85L-205,133.67h0l-11.52-17.83h-6.13v38.22h-13.87V92.26h61.81Z" transform="translate(243.17)"/></g></g></svg>